<mxfile host="app.diagrams.net" modified="2020-06-11T07:56:52.128Z" agent="5.0 (Macintosh; Intel Mac OS X 10_12_6) AppleWebKit/537.36 (KHTML, like Gecko) Chrome/83.0.4103.97 Safari/537.36" etag="w_JDuvH5A22w0j2MgrRf" version="13.2.1" type="github">
  <diagram name="Page-1" id="5f0bae14-7c28-e335-631c-24af17079c00">
    <mxGraphModel dx="946" dy="646" grid="1" gridSize="10" guides="1" tooltips="1" connect="1" arrows="1" fold="1" page="1" pageScale="1" pageWidth="1100" pageHeight="850" background="#ffffff" math="0" shadow="0">
      <root>
        <mxCell id="0" />
        <mxCell id="1" parent="0" />
        <mxCell id="39150e848f15840c-1" value="&amp;lt;&amp;lt;device&amp;gt;&amp;gt;&lt;br&gt;PC/Smartphone/Tablet" style="verticalAlign=top;align=left;spacingTop=8;spacingLeft=2;spacingRight=12;shape=cube;size=10;direction=south;fontStyle=4;html=1;rounded=0;shadow=0;comic=0;labelBackgroundColor=none;strokeWidth=1;fontFamily=Verdana;fontSize=12" parent="1" vertex="1">
          <mxGeometry x="120" y="70" width="340" height="230" as="geometry" />
        </mxCell>
        <mxCell id="39150e848f15840c-2" value="&amp;lt;&amp;lt;device&amp;gt;&amp;gt;&lt;br&gt;WEB Server" style="verticalAlign=top;align=left;spacingTop=8;spacingLeft=2;spacingRight=12;shape=cube;size=10;direction=south;fontStyle=4;html=1;rounded=0;shadow=0;comic=0;labelBackgroundColor=none;strokeWidth=1;fontFamily=Verdana;fontSize=12" parent="1" vertex="1">
          <mxGeometry x="615" y="75" width="330" height="220" as="geometry" />
        </mxCell>
        <mxCell id="39150e848f15840c-3" value="&amp;lt;&amp;lt;device&amp;gt;&amp;gt;&lt;br&gt;Database Server" style="verticalAlign=top;align=left;spacingTop=8;spacingLeft=2;spacingRight=12;shape=cube;size=10;direction=south;fontStyle=4;html=1;rounded=0;shadow=0;comic=0;labelBackgroundColor=none;strokeWidth=1;fontFamily=Verdana;fontSize=12" parent="1" vertex="1">
          <mxGeometry x="620" y="380" width="340" height="260" as="geometry" />
        </mxCell>
        <mxCell id="dptXp-6qySo07-MCF0dz-1" value="&amp;lt;&amp;lt;ExecutionEnvironment&amp;gt;&amp;gt;&lt;br&gt;&lt;br&gt;Windows OS" style="verticalAlign=top;align=left;spacingTop=8;spacingLeft=2;spacingRight=12;shape=cube;size=10;direction=south;fontStyle=4;html=1;rounded=0;shadow=0;comic=0;labelBackgroundColor=none;strokeWidth=1;fontFamily=Verdana;fontSize=12" parent="1" vertex="1">
          <mxGeometry x="160" y="120" width="240" height="180" as="geometry" />
        </mxCell>
        <mxCell id="dptXp-6qySo07-MCF0dz-2" value="&amp;lt;&amp;lt;device&amp;gt;&amp;gt;&lt;br&gt;Web Browser&lt;br&gt;&lt;br&gt;" style="verticalAlign=top;align=left;spacingTop=8;spacingLeft=2;spacingRight=12;shape=cube;size=10;direction=south;fontStyle=4;html=1;rounded=0;shadow=0;comic=0;labelBackgroundColor=none;strokeWidth=1;fontFamily=Verdana;fontSize=12" parent="1" vertex="1">
          <mxGeometry x="190" y="185" width="160" height="110" as="geometry" />
        </mxCell>
        <mxCell id="dptXp-6qySo07-MCF0dz-4" value="" style="shape=note;whiteSpace=wrap;html=1;backgroundOutline=1;darkOpacity=0.05;" parent="1" vertex="1">
          <mxGeometry x="220" y="235" width="105" height="55" as="geometry" />
        </mxCell>
        <mxCell id="dptXp-6qySo07-MCF0dz-5" value="&amp;lt;&amp;lt;artifact&amp;gt;&amp;gt;&lt;br&gt;HTML5 Player" style="text;html=1;strokeColor=none;fillColor=none;align=center;verticalAlign=middle;whiteSpace=wrap;rounded=0;" parent="1" vertex="1">
          <mxGeometry x="240" y="252.5" width="40" height="20" as="geometry" />
        </mxCell>
        <mxCell id="dptXp-6qySo07-MCF0dz-7" value="" style="shape=note;whiteSpace=wrap;html=1;backgroundOutline=1;darkOpacity=0.05;" parent="1" vertex="1">
          <mxGeometry x="700" y="175" width="140" height="77.5" as="geometry" />
        </mxCell>
        <mxCell id="dptXp-6qySo07-MCF0dz-8" value="&amp;lt;&amp;lt;artifact&amp;gt;&amp;gt;&lt;br&gt;Index.php" style="text;html=1;strokeColor=none;fillColor=none;align=center;verticalAlign=middle;whiteSpace=wrap;rounded=0;" parent="1" vertex="1">
          <mxGeometry x="750" y="203.75" width="40" height="20" as="geometry" />
        </mxCell>
        <mxCell id="dptXp-6qySo07-MCF0dz-9" value="&amp;lt;&amp;lt;device&amp;gt;&amp;gt;&lt;br&gt;MySQL" style="verticalAlign=top;align=left;spacingTop=8;spacingLeft=2;spacingRight=12;shape=cube;size=10;direction=south;fontStyle=4;html=1;rounded=0;shadow=0;comic=0;labelBackgroundColor=none;strokeWidth=1;fontFamily=Verdana;fontSize=12" parent="1" vertex="1">
          <mxGeometry x="690" y="470" width="200" height="150" as="geometry" />
        </mxCell>
        <mxCell id="dptXp-6qySo07-MCF0dz-10" value="" style="shape=note;whiteSpace=wrap;html=1;backgroundOutline=1;darkOpacity=0.05;" parent="1" vertex="1">
          <mxGeometry x="720" y="530" width="140" height="77.5" as="geometry" />
        </mxCell>
        <mxCell id="dptXp-6qySo07-MCF0dz-11" value="&amp;lt;&amp;lt;artifact&amp;gt;&amp;gt;&lt;br&gt;MySQL database" style="text;html=1;strokeColor=none;fillColor=none;align=center;verticalAlign=middle;whiteSpace=wrap;rounded=0;" parent="1" vertex="1">
          <mxGeometry x="760" y="560" width="40" height="20" as="geometry" />
        </mxCell>
        <mxCell id="dptXp-6qySo07-MCF0dz-12" value="" style="endArrow=classic;html=1;exitX=0;exitY=0;exitDx=110;exitDy=0;exitPerimeter=0;entryX=0.477;entryY=0.997;entryDx=0;entryDy=0;entryPerimeter=0;" parent="1" source="39150e848f15840c-1" target="39150e848f15840c-2" edge="1">
          <mxGeometry width="50" height="50" relative="1" as="geometry">
            <mxPoint x="540" y="370" as="sourcePoint" />
            <mxPoint x="590" y="320" as="targetPoint" />
          </mxGeometry>
        </mxCell>
        <mxCell id="dptXp-6qySo07-MCF0dz-13" value="HTTP/HTTPS Request" style="text;html=1;strokeColor=none;fillColor=none;align=center;verticalAlign=middle;whiteSpace=wrap;rounded=0;" parent="1" vertex="1">
          <mxGeometry x="520" y="150" width="40" height="20" as="geometry" />
        </mxCell>
        <mxCell id="dptXp-6qySo07-MCF0dz-14" value="" style="endArrow=classic;html=1;entryX=-0.008;entryY=0.562;entryDx=0;entryDy=0;entryPerimeter=0;" parent="1" target="39150e848f15840c-3" edge="1">
          <mxGeometry width="50" height="50" relative="1" as="geometry">
            <mxPoint x="769.5" y="290" as="sourcePoint" />
            <mxPoint x="769.5" y="360" as="targetPoint" />
          </mxGeometry>
        </mxCell>
        <mxCell id="dptXp-6qySo07-MCF0dz-15" value="" style="endArrow=classic;html=1;exitX=0.627;exitY=1;exitDx=0;exitDy=0;exitPerimeter=0;" parent="1" source="39150e848f15840c-2" edge="1">
          <mxGeometry width="50" height="50" relative="1" as="geometry">
            <mxPoint x="560" y="213.25" as="sourcePoint" />
            <mxPoint x="460" y="213.25" as="targetPoint" />
          </mxGeometry>
        </mxCell>
        <mxCell id="dptXp-6qySo07-MCF0dz-17" value="HTTP/HTTPS Response" style="text;html=1;strokeColor=none;fillColor=none;align=center;verticalAlign=middle;whiteSpace=wrap;rounded=0;" parent="1" vertex="1">
          <mxGeometry x="520" y="190" width="40" height="20" as="geometry" />
        </mxCell>
        <mxCell id="dptXp-6qySo07-MCF0dz-18" value="TCP/IP" style="text;html=1;strokeColor=none;fillColor=none;align=center;verticalAlign=middle;whiteSpace=wrap;rounded=0;" parent="1" vertex="1">
          <mxGeometry x="780" y="320" width="40" height="20" as="geometry" />
        </mxCell>
        <mxCell id="dptXp-6qySo07-MCF0dz-20" value="" style="endArrow=classic;startArrow=classic;html=1;exitX=0.835;exitY=0.003;exitDx=0;exitDy=0;exitPerimeter=0;entryX=0.85;entryY=0.985;entryDx=0;entryDy=0;entryPerimeter=0;" parent="1" source="39150e848f15840c-1" target="39150e848f15840c-2" edge="1">
          <mxGeometry width="50" height="50" relative="1" as="geometry">
            <mxPoint x="540" y="370" as="sourcePoint" />
            <mxPoint x="590" y="320" as="targetPoint" />
          </mxGeometry>
        </mxCell>
        <mxCell id="dptXp-6qySo07-MCF0dz-21" value="TCP/IP" style="text;html=1;strokeColor=none;fillColor=none;align=center;verticalAlign=middle;whiteSpace=wrap;rounded=0;" parent="1" vertex="1">
          <mxGeometry x="530" y="275" width="40" height="20" as="geometry" />
        </mxCell>
      </root>
    </mxGraphModel>
  </diagram>
</mxfile>
